<?xml version="1.0" encoding="UTF-8" standalone="no"?><svg xmlns="http://www.w3.org/2000/svg" xmlns:xlink="http://www.w3.org/1999/xlink" contentScriptType="application/ecmascript" contentStyleType="text/css" height="453px" preserveAspectRatio="none" style="width:1018px;height:453px;" version="1.1" viewBox="0 0 1018 453" width="1018px" zoomAndPan="magnify"><defs><filter height="300%" id="f1ds8bog0jzfd6" width="300%" x="-1" y="-1"><feGaussianBlur result="blurOut" stdDeviation="2.0"/><feColorMatrix in="blurOut" result="blurOut2" type="matrix" values="0 0 0 0 0 0 0 0 0 0 0 0 0 0 0 0 0 0 .4 0"/><feOffset dx="4.0" dy="4.0" in="blurOut2" result="blurOut3"/><feBlend in="SourceGraphic" in2="blurOut3" mode="normal"/></filter></defs><g><!--MD5=[d8378cb7f64f23329f9ceb70b0bd4d2e]
entity examples/chi--><rect fill="#FEFECE" filter="url(#f1ds8bog0jzfd6)" height="39.0679" style="stroke: #A80036; stroke-width: 1.5;" width="109" x="35" y="7.66"/><rect fill="#FEFECE" height="5" style="stroke: #A80036; stroke-width: 1.5;" width="10" x="30" y="12.66"/><rect fill="#FEFECE" height="5" style="stroke: #A80036; stroke-width: 1.5;" width="10" x="30" y="36.7279"/><text fill="#000000" font-family="sans-serif" font-size="14" lengthAdjust="spacingAndGlyphs" textLength="89" x="45" y="32.6259">examples/chi</text><!--MD5=[cb89c2de525b4259b4507a1f1f85aaf3]
entity github.com/titpetric/oida--><rect fill="#FEFECE" filter="url(#f1ds8bog0jzfd6)" height="39.0679" style="stroke: #A80036; stroke-width: 1.5;" width="189" x="306" y="106.73"/><rect fill="#FEFECE" height="5" style="stroke: #A80036; stroke-width: 1.5;" width="10" x="301" y="111.73"/><rect fill="#FEFECE" height="5" style="stroke: #A80036; stroke-width: 1.5;" width="10" x="301" y="135.7979"/><text fill="#000000" font-family="sans-serif" font-size="14" lengthAdjust="spacingAndGlyphs" textLength="169" x="316" y="131.6959">github.com/titpetric/oida</text><!--MD5=[8ed591fc80309fdb518c8afe4927fb4e]
entity examples/gorilla--><rect fill="#FEFECE" filter="url(#f1ds8bog0jzfd6)" height="39.0679" style="stroke: #A80036; stroke-width: 1.5;" width="132" x="178.5" y="7.66"/><rect fill="#FEFECE" height="5" style="stroke: #A80036; stroke-width: 1.5;" width="10" x="173.5" y="12.66"/><rect fill="#FEFECE" height="5" style="stroke: #A80036; stroke-width: 1.5;" width="10" x="173.5" y="36.7279"/><text fill="#000000" font-family="sans-serif" font-size="14" lengthAdjust="spacingAndGlyphs" textLength="112" x="188.5" y="32.6259">examples/gorilla</text><!--MD5=[9b3d9cce86a295bf3421592f13ed06b7]
entity examples/std--><rect fill="#FEFECE" filter="url(#f1ds8bog0jzfd6)" height="39.0679" style="stroke: #A80036; stroke-width: 1.5;" width="110" x="345.5" y="7.66"/><rect fill="#FEFECE" height="5" style="stroke: #A80036; stroke-width: 1.5;" width="10" x="340.5" y="12.66"/><rect fill="#FEFECE" height="5" style="stroke: #A80036; stroke-width: 1.5;" width="10" x="340.5" y="36.7279"/><text fill="#000000" font-family="sans-serif" font-size="14" lengthAdjust="spacingAndGlyphs" textLength="90" x="355.5" y="32.6259">examples/std</text><!--MD5=[ec5a384bbe3230a80ed53ad0c492a272]
entity github.com/titpetric/oida/frontend--><rect fill="#FEFECE" filter="url(#f1ds8bog0jzfd6)" height="39.0679" style="stroke: #A80036; stroke-width: 1.5;" width="253" x="6" y="304.86"/><rect fill="#FEFECE" height="5" style="stroke: #A80036; stroke-width: 1.5;" width="10" x="1" y="309.86"/><rect fill="#FEFECE" height="5" style="stroke: #A80036; stroke-width: 1.5;" width="10" x="1" y="333.9279"/><text fill="#000000" font-family="sans-serif" font-size="14" lengthAdjust="spacingAndGlyphs" textLength="233" x="16" y="329.8259">github.com/titpetric/oida/frontend</text><!--MD5=[28deb74e2089bd194dc08d839ce47db5]
entity github.com/titpetric/oida/internal--><rect fill="#FEFECE" filter="url(#f1ds8bog0jzfd6)" height="39.0679" style="stroke: #A80036; stroke-width: 1.5;" width="247" x="189" y="205.8"/><rect fill="#FEFECE" height="5" style="stroke: #A80036; stroke-width: 1.5;" width="10" x="184" y="210.8"/><rect fill="#FEFECE" height="5" style="stroke: #A80036; stroke-width: 1.5;" width="10" x="184" y="234.8679"/><text fill="#000000" font-family="sans-serif" font-size="14" lengthAdjust="spacingAndGlyphs" textLength="227" x="199" y="230.7659">github.com/titpetric/oida/internal</text><!--MD5=[0c4deb584cf3f5c1b8e68eb7cf694ad3]
entity github.com/titpetric/oida/model--><rect fill="#FEFECE" filter="url(#f1ds8bog0jzfd6)" height="39.0679" style="stroke: #A80036; stroke-width: 1.5;" width="236" x="282.5" y="403.93"/><rect fill="#FEFECE" height="5" style="stroke: #A80036; stroke-width: 1.5;" width="10" x="277.5" y="408.93"/><rect fill="#FEFECE" height="5" style="stroke: #A80036; stroke-width: 1.5;" width="10" x="277.5" y="432.9979"/><text fill="#000000" font-family="sans-serif" font-size="14" lengthAdjust="spacingAndGlyphs" textLength="216" x="292.5" y="428.8959">github.com/titpetric/oida/model</text><!--MD5=[cfb9574a1e5bbdfbf5ae6681147b7d43]
entity github.com/titpetric/oida/storage--><rect fill="#FEFECE" filter="url(#f1ds8bog0jzfd6)" height="39.0679" style="stroke: #A80036; stroke-width: 1.5;" width="245" x="366" y="304.86"/><rect fill="#FEFECE" height="5" style="stroke: #A80036; stroke-width: 1.5;" width="10" x="361" y="309.86"/><rect fill="#FEFECE" height="5" style="stroke: #A80036; stroke-width: 1.5;" width="10" x="361" y="333.9279"/><text fill="#000000" font-family="sans-serif" font-size="14" lengthAdjust="spacingAndGlyphs" textLength="225" x="376" y="329.8259">github.com/titpetric/oida/storage</text><!--MD5=[f5f20f91cb82bfada79f86d119930434]
entity github.com/titpetric/oida/cmd/oida--><rect fill="#FEFECE" filter="url(#f1ds8bog0jzfd6)" height="39.0679" style="stroke: #A80036; stroke-width: 1.5;" width="257" x="490" y="7.66"/><rect fill="#FEFECE" height="5" style="stroke: #A80036; stroke-width: 1.5;" width="10" x="485" y="12.66"/><rect fill="#FEFECE" height="5" style="stroke: #A80036; stroke-width: 1.5;" width="10" x="485" y="36.7279"/><text fill="#000000" font-family="sans-serif" font-size="14" lengthAdjust="spacingAndGlyphs" textLength="237" x="500" y="32.6259">github.com/titpetric/oida/cmd/oida</text><!--MD5=[24b07b63b660c6048c040b65d0ada9db]
entity github.com/titpetric/oida/tests--><rect fill="#FEFECE" filter="url(#f1ds8bog0jzfd6)" height="39.0679" style="stroke: #A80036; stroke-width: 1.5;" width="226" x="781.5" y="7.66"/><rect fill="#FEFECE" height="5" style="stroke: #A80036; stroke-width: 1.5;" width="10" x="776.5" y="12.66"/><rect fill="#FEFECE" height="5" style="stroke: #A80036; stroke-width: 1.5;" width="10" x="776.5" y="36.7279"/><text fill="#000000" font-family="sans-serif" font-size="14" lengthAdjust="spacingAndGlyphs" textLength="206" x="791.5" y="32.6259">github.com/titpetric/oida/tests</text><!--MD5=[b6bd6eaf551d9af17cb2820398fa94c2]
link examples/chi to github.com/titpetric/oida--><path d="M144.38,45.32 C192.94,60.48 264.42,82.79 319.54,99.99 " fill="none" id="examples/chi-&gt;github.com/titpetric/oida" style="stroke: #A80036; stroke-width: 1.0;"/><polygon fill="none" points="321.33,93.22,338.34,105.86,317.16,106.58,321.33,93.22" style="stroke: #A80036; stroke-width: 1.0;"/><!--MD5=[4f710913c76a3c10c0a54dc833a8b35d]
link examples/gorilla to github.com/titpetric/oida--><path d="M274.95,47.14 C296.85,60.77 326.85,79.43 352.03,95.1 " fill="none" id="examples/gorilla-&gt;github.com/titpetric/oida" style="stroke: #A80036; stroke-width: 1.0;"/><polygon fill="none" points="355.56,89.05,368.84,105.56,348.16,100.94,355.56,89.05" style="stroke: #A80036; stroke-width: 1.0;"/><!--MD5=[fe70d3e88f083d767f09a7039225592a]
link examples/std to github.com/titpetric/oida--><path d="M400.5,46.91 C400.5,57.72 400.5,71.75 400.5,84.94 " fill="none" id="examples/std-&gt;github.com/titpetric/oida" style="stroke: #A80036; stroke-width: 1.0;"/><polygon fill="none" points="407.5,84.76,400.5,104.76,393.5,84.76,407.5,84.76" style="stroke: #A80036; stroke-width: 1.0;"/><!--MD5=[79f5907f49efc6973fcfcb48698bfef0]
link github.com/titpetric/oida to github.com/titpetric/oida/frontend--><path d="M305.61,139.79 C259.74,150.37 207.06,169.88 171.5,205.8 C151.1,226.41 141.37,257.93 136.73,283.15 " fill="none" id="github.com/titpetric/oida-&gt;github.com/titpetric/oida/frontend" style="stroke: #A80036; stroke-width: 1.0;"/><polygon fill="none" points="143.66,284.13,133.91,302.94,129.8,282.16,143.66,284.13" style="stroke: #A80036; stroke-width: 1.0;"/><!--MD5=[203c2f063207ad91763649e747426651]
link github.com/titpetric/oida to github.com/titpetric/oida/internal--><path d="M383.53,145.98 C372.28,158.39 357.19,175.04 343.8,189.8 " fill="none" id="github.com/titpetric/oida-&gt;github.com/titpetric/oida/internal" style="stroke: #A80036; stroke-width: 1.0;"/><polygon fill="none" points="349.35,194.1,330.73,204.22,338.98,184.7,349.35,194.1" style="stroke: #A80036; stroke-width: 1.0;"/><!--MD5=[1499188ab2a8aaed077dc1732f72bb4a]
link github.com/titpetric/oida to github.com/titpetric/oida/model--><path d="M450.16,146.2 C533.97,181.03 688.74,259.46 628.5,343.93 C607.26,373.71 573.97,392.31 539.33,403.89 " fill="none" id="github.com/titpetric/oida-&gt;github.com/titpetric/oida/model" style="stroke: #A80036; stroke-width: 1.0;"/><polygon fill="none" points="541.47,410.56,520.3,409.5,537.5,397.13,541.47,410.56" style="stroke: #A80036; stroke-width: 1.0;"/><!--MD5=[d6025017cbd0a003db3b28b720f264d0]
link github.com/titpetric/oida to github.com/titpetric/oida/storage--><path d="M415.76,146.27 C427.44,161.59 443.24,184.08 453.5,205.8 C465.24,230.64 474.04,260.31 479.87,283.63 " fill="none" id="github.com/titpetric/oida-&gt;github.com/titpetric/oida/storage" style="stroke: #A80036; stroke-width: 1.0;"/><polygon fill="none" points="486.65,281.88,484.38,302.95,473.02,285.06,486.65,281.88" style="stroke: #A80036; stroke-width: 1.0;"/><!--MD5=[8252876edc8357d6dc53cdaadfd02002]
link github.com/titpetric/oida/cmd/oida to github.com/titpetric/oida--><path d="M575.95,47.14 C543.61,61.54 498.66,81.55 462.36,97.72 " fill="none" id="github.com/titpetric/oida/cmd/oida-&gt;github.com/titpetric/oida" style="stroke: #A80036; stroke-width: 1.0;"/><polygon fill="none" points="465.44,104.01,444.33,105.75,459.75,91.22,465.44,104.01" style="stroke: #A80036; stroke-width: 1.0;"/><!--MD5=[c28f73ce873335dd616dd3b912b1cd08]
link github.com/titpetric/oida/frontend to github.com/titpetric/oida/model--><path d="M184.81,344.34 C225.67,359.14 282.91,379.88 328.16,396.26 " fill="none" id="github.com/titpetric/oida/frontend-&gt;github.com/titpetric/oida/model" style="stroke: #A80036; stroke-width: 1.0;"/><polygon fill="none" points="330.48,389.66,346.9,403.05,325.71,402.82,330.48,389.66" style="stroke: #A80036; stroke-width: 1.0;"/><!--MD5=[22822b24be5f4e240e28866d3d0b91ec]
link github.com/titpetric/oida/internal to github.com/titpetric/oida/model--><path d="M316.52,245.28 C321.96,269.05 332.83,310.72 348.5,343.93 C355.39,358.54 364.71,373.56 373.55,386.51 " fill="none" id="github.com/titpetric/oida/internal-&gt;github.com/titpetric/oida/model" style="stroke: #A80036; stroke-width: 1.0;"/><polygon fill="none" points="379.02,382.13,384.95,402.47,367.63,390.26,379.02,382.13" style="stroke: #A80036; stroke-width: 1.0;"/><!--MD5=[d7be231bbb5095b816ca4e348fa18239]
link github.com/titpetric/oida/internal to github.com/titpetric/oida/storage--><path d="M346.85,245.28 C372.05,259.17 406.74,278.3 435.48,294.15 " fill="none" id="github.com/titpetric/oida/internal-&gt;github.com/titpetric/oida/storage" style="stroke: #A80036; stroke-width: 1.0;"/><polygon fill="none" points="438.78,287.98,452.91,303.77,432.02,300.24,438.78,287.98" style="stroke: #A80036; stroke-width: 1.0;"/><!--MD5=[360831d4d7bf5dd1f31f2110307b366d]
link github.com/titpetric/oida/storage to github.com/titpetric/oida/model--><path d="M471.53,344.11 C460.28,356.52 445.19,373.18 431.8,387.94 " fill="none" id="github.com/titpetric/oida/storage-&gt;github.com/titpetric/oida/model" style="stroke: #A80036; stroke-width: 1.0;"/><polygon fill="none" points="437.35,392.24,418.73,402.36,426.98,382.84,437.35,392.24" style="stroke: #A80036; stroke-width: 1.0;"/><!--MD5=[8766a200835968c50a1a2db74dffdcbc]
link github.com/titpetric/oida/tests to github.com/titpetric/oida--><path d="M797.79,47.2 C717.12,63.05 601.97,85.67 516.39,102.49 " fill="none" id="github.com/titpetric/oida/tests-&gt;github.com/titpetric/oida" style="stroke: #A80036; stroke-width: 1.0;"/><polygon fill="none" points="517.76,109.35,496.79,106.34,515.06,95.62,517.76,109.35" style="stroke: #A80036; stroke-width: 1.0;"/><!--MD5=[a6d3827315bb2ba0d40f91ff57526d65]
@startuml
[examples/chi] - -|> [github.com/titpetric/oida]
[examples/gorilla] - -|> [github.com/titpetric/oida]
[examples/std] - -|> [github.com/titpetric/oida]
[github.com/titpetric/oida] - -|> [github.com/titpetric/oida/frontend]
[github.com/titpetric/oida] - -|> [github.com/titpetric/oida/internal]
[github.com/titpetric/oida] - -|> [github.com/titpetric/oida/model]
[github.com/titpetric/oida] - -|> [github.com/titpetric/oida/storage]
[github.com/titpetric/oida/cmd/oida] - -|> [github.com/titpetric/oida]
[github.com/titpetric/oida/frontend] - -|> [github.com/titpetric/oida/model]
[github.com/titpetric/oida/internal] - -|> [github.com/titpetric/oida/model]
[github.com/titpetric/oida/internal] - -|> [github.com/titpetric/oida/storage]
[github.com/titpetric/oida/storage] - -|> [github.com/titpetric/oida/model]
[github.com/titpetric/oida/tests] - -|> [github.com/titpetric/oida]
@enduml

PlantUML version 1.2020.02(Sun Mar 01 11:22:07 CET 2020)
(GPL source distribution)
Java Runtime: OpenJDK Runtime Environment
JVM: OpenJDK 64-Bit Server VM
Java Version: 25.0.4+7-1-26.04-Ubuntu
Operating System: Linux
Default Encoding: UTF-8
Language: en
Country: US
--></g></svg>